# Blender v2.79 (sub 0) OBJ File: 'Rock02.blend'
# www.blender.org
mtllib Rock02_lowPoly.mtl
o Rock02_lowPoly
v -0.464370 0.523899 -0.740233
v -0.384306 0.970387 -0.358606
v -0.048333 0.638305 -0.986828
v 0.687842 0.631318 0.575864
v 0.465669 0.984898 0.140295
v 0.273983 0.894175 0.507615
v -0.238100 0.713100 0.640362
v -0.010628 0.557239 0.981722
v 0.181499 0.735964 0.793640
v -0.625513 -1.241512 0.491685
v -1.096293 -0.893944 0.663994
v -0.888757 -1.160588 0.187526
v -0.801371 -0.872354 0.979047
v -0.454990 -1.116404 0.880070
v 0.911527 -0.941324 -0.430024
v 0.589466 -1.178600 -0.762968
v 0.822267 -0.911022 -0.813717
v 0.611010 0.505660 0.780937
v 0.959364 -0.338519 -0.638234
v 1.064290 -0.655312 -0.448120
v 0.947611 -0.649053 -0.749553
v 0.704795 -0.840580 -1.021903
v 0.685104 -0.337805 -1.154967
v -0.644572 0.808736 0.164718
v -0.556572 0.816582 -0.279707
v -0.806791 0.689429 -0.085036
v -0.128609 -0.947135 1.248155
v -0.633172 -0.720480 1.192894
v 0.062588 -0.995620 0.947065
v -0.246907 -1.245346 0.599003
v -0.573814 -0.300408 -1.270034
v -0.233903 -0.419828 -1.365353
v -0.656577 -0.570140 -1.188305
v 0.149548 -1.164826 0.688630
v 0.072264 -1.126421 -1.033223
v 0.354225 -0.744808 -1.245378
v 0.459198 -1.017599 1.032918
v -0.477042 -0.089596 -1.056403
v 0.327803 -0.115197 -1.099197
v -0.019875 -0.282921 -1.389819
v -0.076049 -0.858517 -1.236147
v -0.457483 -1.305480 -0.189457
v -0.654640 -1.204282 -0.264266
v -1.181771 -0.889088 0.179986
v -1.026152 -1.031231 -0.054254
v -0.248339 -1.403218 0.124142
v 1.195600 -0.507465 -0.348090
v 1.312963 -0.543369 -0.076268
v 1.218372 -0.776051 -0.126450
v 0.249774 -1.346478 -0.745840
v -0.021022 -1.292131 -0.861597
v -0.126781 -1.395791 -0.159379
v 0.081849 -1.440562 -0.290126
v 0.327341 -1.355885 0.063031
v -0.685153 -0.254431 -1.130593
v 0.586042 -1.322426 -0.001672
v 0.472477 -1.317786 -0.473980
v 0.181018 -1.267816 0.406280
v 0.161282 -0.339538 -1.404993
v 0.558793 -1.289425 0.453266
v -1.136009 -0.843669 -0.222202
v -0.647291 -1.035274 -0.747042
v 0.236010 1.013803 -0.426787
v -0.057416 0.927117 0.088181
v 0.630084 0.999113 -0.206090
v -0.393640 0.379530 -1.005749
v -0.924158 -0.202005 -0.683045
v -0.989411 0.220154 -0.341411
v 0.373635 0.073630 -0.997400
v -0.286995 -1.302768 -0.627213
v -1.147626 -0.224110 -0.415254
v 0.694023 -1.221938 -0.273400
v 1.074479 -1.024920 0.007429
v 0.828493 0.776316 0.067710
v 0.726878 0.812368 -0.288290
v -1.038454 0.088295 -0.184041
v -0.461046 -0.971064 -0.973797
v -0.885013 -0.820102 -0.921936
v -0.939114 -0.538433 -0.956344
v 1.388668 -0.238576 0.252437
v 1.275595 -0.046469 0.498774
v 1.263150 -0.279100 0.603754
v 0.981893 -0.323846 0.989019
v 0.954017 0.025422 0.910779
v 0.735182 0.126171 0.926050
v 0.340739 -0.318401 1.362813
v 0.328966 0.154220 1.182319
v 0.858516 -1.228193 0.253710
v 1.194459 -0.898935 0.271186
v -0.291690 -0.558557 1.381236
v -1.278308 -0.110037 0.838581
v -1.025429 0.077993 0.957687
v -1.356421 -0.136298 0.565028
v -0.019747 0.201738 1.261591
v 0.170201 -0.536503 1.477866
v -0.602313 0.041967 1.218323
v -0.988697 0.454050 0.044264
v 1.004069 0.584303 0.085482
v 1.068224 0.273479 0.277229
v 1.011021 0.227381 -0.026541
v 0.856201 0.154286 -0.540678
v 0.483562 0.708589 -0.637466
v -0.676363 0.449142 0.896075
v 0.977608 0.198551 0.627169
v 1.312577 -0.076101 0.030616
v 1.206838 -0.198536 -0.280447
v 0.981156 -0.131970 -0.415018
v 0.730543 -0.099141 -0.748464
v 0.201499 -0.731043 1.426441
v 1.074200 -0.058042 0.671470
v -0.978649 0.296705 0.701705
v -1.062737 0.191732 0.256466
v 1.240785 -0.583878 0.525240
v 1.092866 -0.326263 0.780000
v 0.947816 -0.786918 0.951979
v 0.633045 -0.474077 1.301963
v -1.006827 -0.126303 1.122845
v -1.019737 -0.592032 0.992281
v 0.673581 -0.900773 1.125630
v 0.373004 -0.534875 1.438265
v 0.008079 0.953499 -0.700374
v 0.844302 -1.108501 0.677318
v -1.070822 -0.806200 -0.620688
v -1.128141 -0.441915 -0.516678
v -1.275069 -0.515022 0.621502
v -1.291987 -0.513341 0.094240
v -1.310466 -0.214728 0.069395
vt 0.460026 0.670123
vt 0.461674 0.772304
vt 0.360880 0.665710
vt 0.094415 0.292358
vt 0.016592 0.357713
vt 0.013508 0.277761
vt 0.582506 0.902172
vt 0.631852 0.973429
vt 0.565301 0.988781
vt 0.835849 0.620027
vt 0.780380 0.680238
vt 0.778791 0.606256
vt 0.827446 0.712869
vt 0.883860 0.673485
vt 0.338264 0.400146
vt 0.396404 0.441929
vt 0.347343 0.450531
vt 0.108661 0.256952
vt 0.036397 0.218792
vt 0.263785 0.447664
vt 0.297352 0.408603
vt 0.308872 0.448686
vt 0.350684 0.483966
vt 0.291451 0.522852
vt 0.551495 0.803580
vt 0.498068 0.757329
vt 0.549937 0.756935
vt 0.962168 0.745452
vt 0.850538 0.757384
vt 0.993205 0.667365
vt 0.899923 0.609032
vt 0.547404 0.508294
vt 0.536125 0.446524
vt 0.590834 0.502608
vt 0.983585 0.594487
vt 0.461424 0.523125
vt 0.367643 0.545746
vt 0.325382 0.197243
vt 0.367065 0.149888
vt 0.402418 0.196331
vt 0.217773 0.726172
vt 0.248745 0.577090
vt 0.303845 0.651269
vt 0.434330 0.593708
vt 0.789031 0.517321
vt 0.755810 0.536226
vt 0.738790 0.638253
vt 0.738760 0.599004
vt 0.855111 0.531704
vt 0.273813 0.396078
vt 0.269488 0.364078
vt 0.296263 0.364902
vt 0.680689 0.360251
vt 0.763876 0.345673
vt 0.722484 0.389148
vt 0.513685 0.324560
vt 0.484844 0.357919
vt 0.429993 0.310091
vt 0.554185 0.535069
vt 0.503505 0.545204
vt 0.395215 0.330188
vt 0.461673 0.441950
vt 0.418993 0.398274
vt 0.492312 0.423502
vt 0.839487 0.472596
vt 0.956791 0.537392
vt 0.317281 0.617873
vt 0.430207 0.243956
vt 0.376045 0.269500
vt 0.703028 0.601456
vt 0.687442 0.501433
vt 0.360493 0.829414
vt 0.473902 0.867585
vt 0.332588 0.921570
vt 0.437397 0.614508
vt 0.587613 0.603555
vt 0.578462 0.683001
vt 0.093970 0.621636
vt 0.211624 0.563335
vt 0.131170 0.695312
vt 0.744535 0.449969
vt 0.625080 0.635983
vt 0.840298 0.419818
vt 0.381979 0.372396
vt 0.324313 0.344634
vt 0.088488 0.375060
vt 0.081774 0.434002
vt 0.041724 0.427369
vt 0.607930 0.687751
vt 0.657508 0.462064
vt 0.642894 0.528378
vt 0.611655 0.548954
vt 0.233588 0.337698
vt 0.210954 0.316099
vt 0.231024 0.301963
vt 0.228587 0.249615
vt 0.190599 0.261540
vt 0.167008 0.242153
vt 0.219454 0.160249
vt 0.150197 0.176125
vt 0.350180 0.308247
vt 0.299831 0.321352
vt 0.899200 0.826803
vt 0.721656 0.753974
vt 0.714181 0.796050
vt 0.701162 0.730213
vt 0.127797 0.117182
vt 0.250105 0.132549
vt 0.259959 0.059253
vt 0.149916 0.004825
vt 0.592426 0.744381
vt 0.125787 0.370104
vt 0.165790 0.342126
vt 0.174144 0.382218
vt 0.189521 0.456097
vt 0.094972 0.505948
vt 0.666171 0.852967
vt 0.762038 0.867293
vt 0.725474 0.988547
vt 0.168480 0.293897
vt 0.220038 0.363097
vt 0.239098 0.395474
vt 0.227626 0.427002
vt 0.232720 0.487929
vt 0.016202 0.507363
vt 0.278191 0.139471
vt 0.201684 0.289354
vt 0.668382 0.794310
vt 0.638039 0.740202
vt 0.262286 0.302850
vt 0.231577 0.275969
vt 0.279240 0.247408
vt 0.242602 0.195748
vt 0.751436 0.791373
vt 0.785012 0.736751
vt 0.408077 0.949528
vt 0.294675 0.211593
vt 0.250108 0.160152
vt 0.369074 0.753504
vt 0.324662 0.264252
vt 0.333078 0.096942
vt 0.027307 0.574367
vt 0.495814 0.971758
vt 0.665414 0.566451
vt 0.484830 0.385337
vt 0.608497 0.389109
vt 0.637645 0.606845
vt 0.738206 0.706615
vt 0.051422 0.160516
vt 0.696897 0.661403
vt 0.668534 0.684054
vn -0.6507 0.5444 -0.5293
vn -0.4323 0.8649 -0.2548
vn -0.1195 0.5655 -0.8161
vn 0.5520 0.6863 0.4736
vn 0.2644 0.9278 0.2631
vn 0.0504 0.9194 0.3900
vn -0.2225 0.8824 0.4146
vn 0.0362 0.6948 0.7183
vn 0.1369 0.7799 0.6107
vn -0.3078 -0.9078 0.2849
vn -0.6559 -0.6557 0.3738
vn -0.5094 -0.8605 0.0056
vn -0.4696 -0.6148 0.6337
vn -0.1914 -0.8454 0.4986
vn 0.7343 -0.5961 -0.3249
vn 0.5299 -0.7385 -0.4170
vn 0.7882 -0.4795 -0.3858
vn 0.4730 0.5506 0.6878
vn 0.7999 0.2623 -0.5398
vn 0.8429 -0.2867 -0.4552
vn 0.8746 -0.1005 -0.4743
vn 0.5721 -0.4328 -0.6967
vn 0.6543 0.2634 -0.7089
vn -0.5070 0.8419 0.1848
vn -0.6688 0.6577 -0.3465
vn -0.7199 0.6677 -0.1896
vn -0.1145 -0.7685 0.6295
vn -0.4080 -0.4424 0.7986
vn 0.0266 -0.9175 0.3969
vn 0.0188 -0.9118 0.4101
vn -0.4526 0.3072 -0.8371
vn -0.2193 -0.2197 -0.9506
vn -0.4284 -0.3167 -0.8463
vn -0.0096 -0.9092 0.4163
vn 0.0901 -0.6660 -0.7405
vn 0.2903 -0.3860 -0.8757
vn 0.0681 -0.8766 0.4764
vn -0.2673 0.6187 -0.7388
vn 0.2652 0.6690 -0.6943
vn -0.0647 0.5495 -0.8330
vn -0.1137 -0.4681 -0.8763
vn -0.3366 -0.9345 -0.1160
vn -0.5009 -0.8304 -0.2441
vn -0.8509 -0.5253 -0.0013
vn -0.6453 -0.7390 -0.1935
vn -0.0923 -0.9861 0.1382
vn 0.8613 -0.0964 -0.4989
vn 0.9611 -0.1572 -0.2270
vn 0.8316 -0.4389 -0.3403
vn 0.1606 -0.9309 -0.3281
vn -0.1774 -0.8167 -0.5492
vn -0.1022 -0.9939 0.0419
vn -0.0016 -0.9999 -0.0113
vn 0.0301 -0.9823 0.1849
vn -0.6248 0.5717 -0.5318
vn 0.2849 -0.9583 -0.0197
vn 0.4123 -0.8975 -0.1567
vn 0.0220 -0.9691 0.2458
vn 0.1656 0.1168 -0.9793
vn 0.1101 -0.9567 0.2694
vn -0.7571 -0.6103 -0.2333
vn -0.4817 -0.8052 -0.3459
vn 0.1372 0.9659 -0.2195
vn -0.1298 0.9752 0.1796
vn 0.4193 0.8886 -0.1857
vn -0.4217 0.3388 -0.8411
vn -0.7310 0.4110 -0.5447
vn -0.8183 0.4243 -0.3878
vn 0.3676 0.2744 -0.8886
vn -0.3186 -0.9079 -0.2724
vn -0.9021 0.2372 -0.3605
vn 0.5647 -0.7993 -0.2055
vn 0.6962 -0.6870 -0.2080
vn 0.6868 0.7126 0.1431
vn 0.7666 0.5027 -0.3996
vn -0.9185 0.3689 -0.1425
vn -0.3285 -0.6468 -0.6883
vn -0.5662 -0.5582 -0.6065
vn -0.8005 0.0806 -0.5938
vn 0.9916 0.0805 0.1014
vn 0.7779 0.4442 0.4446
vn 0.8117 0.0762 0.5790
vn 0.6753 0.1254 0.7268
vn 0.7136 0.3936 0.5796
vn 0.4626 0.4477 0.7653
vn 0.3243 0.3582 0.8755
vn 0.3695 0.4715 0.8007
vn 0.5149 -0.8560 0.0451
vn 0.8570 -0.4986 0.1305
vn -0.2728 -0.1679 0.9473
vn -0.8531 0.1412 0.5022
vn -0.6550 0.6110 0.4445
vn -0.9483 0.3111 0.0622
vn 0.0280 0.4684 0.8831
vn 0.0074 0.0999 0.9950
vn -0.2850 0.3722 0.8833
vn -0.8976 0.4405 -0.0152
vn 0.9038 0.4280 0.0046
vn 0.8580 0.4978 0.1265
vn 0.8772 0.3462 -0.3327
vn 0.8032 0.2546 -0.5386
vn 0.5273 0.5289 -0.6650
vn -0.3734 0.7116 0.5951
vn 0.7423 0.5005 0.4456
vn 0.8500 0.4099 -0.3310
vn 0.7453 0.3971 -0.5356
vn 0.7135 0.4663 -0.5229
vn 0.6861 0.4130 -0.5989
vn 0.0803 -0.4940 0.8658
vn 0.7550 0.3984 0.5208
vn -0.7920 0.5621 0.2383
vn -0.8822 0.4706 -0.0155
vn 0.8779 -0.2306 0.4197
vn 0.8335 0.0574 0.5495
vn 0.7681 -0.3167 0.5565
vn 0.5414 0.0924 0.8357
vn -0.5275 0.1028 0.8433
vn -0.6797 -0.3311 0.6545
vn 0.4299 -0.5558 0.7115
vn 0.3460 -0.0434 0.9372
vn 0.0726 0.8246 -0.5611
vn 0.4891 -0.7769 0.3965
vn -0.8522 -0.4103 -0.3247
vn -0.9087 0.1092 -0.4030
vn -0.9246 -0.2824 0.2555
vn -0.9758 -0.1596 -0.1498
vn -0.9244 0.3137 -0.2170
usemtl Material.002
s 1
f 1/1/1 2/2/2 3/3/3
f 4/4/4 5/5/5 6/6/6
f 7/7/7 8/8/8 9/9/9
f 10/10/10 11/11/11 12/12/12
f 13/13/13 11/11/11 14/14/14
f 15/15/15 16/16/16 17/17/17
f 18/18/18 4/4/4 9/19/9
f 19/20/19 20/21/20 21/22/21
f 22/23/22 23/24/23 21/22/21
f 24/25/24 25/26/25 26/27/26
f 14/14/14 27/28/27 28/29/28
f 29/30/29 14/14/14 30/31/30
f 10/10/10 30/31/30 14/14/14
f 31/32/31 32/33/32 33/34/33
f 30/31/30 34/35/34 29/30/29
f 35/36/35 36/37/36 22/23/22
f 27/28/27 14/14/14 29/30/29
f 37/38/37 29/39/29 34/40/34
f 38/41/38 39/42/39 40/43/40
f 35/36/35 41/44/41 36/37/36
f 42/45/42 12/12/12 43/46/43
f 12/12/12 44/47/44 45/48/45
f 12/12/12 46/49/46 10/10/10
f 47/50/47 48/51/48 49/52/49
f 46/49/46 12/12/12 42/45/42
f 35/53/35 50/54/50 51/55/51
f 52/56/52 53/57/53 54/58/54
f 46/49/46 34/35/34 30/31/30
f 55/59/55 38/60/38 31/32/31
f 56/61/56 50/62/50 57/63/57
f 40/64/40 32/33/32 31/32/31
f 52/65/52 58/66/58 46/49/46
f 59/67/59 23/24/23 36/37/36
f 56/61/56 54/58/54 53/57/53
f 58/68/58 60/69/60 34/40/34
f 43/46/43 61/70/61 62/71/62
f 63/72/63 64/73/64 65/74/65
f 66/75/66 38/60/38 67/76/67
f 67/76/67 68/77/68 1/1/1
f 67/76/67 1/1/1 66/75/66
f 26/27/26 25/26/25 68/77/68
f 3/78/3 69/79/69 66/80/66
f 66/80/66 69/79/69 38/41/38
f 31/32/31 38/60/38 40/64/40
f 38/41/38 69/79/69 39/42/39
f 70/81/70 52/65/52 42/45/42
f 59/67/59 40/43/40 39/42/39
f 68/77/68 67/76/67 71/82/71
f 53/83/53 52/65/52 70/81/70
f 72/84/72 15/15/15 73/85/73
f 74/86/74 75/87/75 65/88/65
f 68/77/68 71/82/71 76/89/76
f 62/71/62 77/90/77 70/81/70
f 78/91/78 33/34/33 77/90/77
f 55/59/55 31/32/31 79/92/79
f 80/93/80 81/94/81 82/95/82
f 23/24/23 59/67/59 39/42/39
f 83/96/83 84/97/84 85/98/85
f 86/99/86 85/98/85 87/100/87
f 35/36/35 22/23/22 16/16/16
f 50/62/50 16/16/16 57/63/57
f 88/101/88 73/85/73 89/102/89
f 27/28/27 90/103/90 28/29/28
f 91/104/91 92/105/92 93/106/93
f 86/99/86 94/107/94 95/108/95
f 90/109/90 95/108/95 96/110/96
f 97/111/97 26/27/26 68/77/68
f 98/112/98 99/113/99 100/114/100
f 75/87/75 101/115/101 102/116/102
f 75/87/75 98/112/98 101/115/101
f 103/117/103 96/118/96 94/119/94
f 8/8/8 103/117/103 94/119/94
f 85/98/85 84/97/84 104/120/104
f 74/86/74 65/88/65 5/5/5
f 18/18/18 85/98/85 104/120/104
f 105/121/105 106/122/106 107/123/107
f 19/20/19 106/122/106 47/50/47
f 23/24/23 108/124/108 19/20/19
f 63/125/63 65/88/65 102/116/102
f 101/115/101 108/124/108 69/79/69
f 101/115/101 69/79/69 102/116/102
f 95/108/95 90/109/90 109/126/109
f 69/79/69 108/124/108 39/42/39
f 100/114/100 105/121/105 107/123/107
f 105/121/105 100/114/100 99/113/99
f 19/20/19 108/124/108 107/123/107
f 107/123/107 101/115/101 100/114/100
f 98/112/98 100/114/100 101/115/101
f 107/123/107 108/124/108 101/115/101
f 98/112/98 75/87/75 74/86/74
f 110/127/110 99/113/99 104/120/104
f 104/120/104 99/113/99 98/112/98
f 92/105/92 111/128/111 112/129/112
f 68/77/68 76/89/76 97/111/97
f 97/111/97 76/89/76 112/129/112
f 113/130/113 114/131/114 115/132/115
f 85/98/85 86/99/86 116/133/116
f 28/29/28 13/13/13 14/14/14
f 96/118/96 92/105/92 117/134/117
f 114/131/114 113/130/113 82/95/82
f 94/107/94 96/110/96 95/108/95
f 92/105/92 96/118/96 103/117/103
f 72/84/72 88/101/88 56/61/56
f 64/73/64 2/2/2 24/25/24
f 117/134/117 118/135/118 28/29/28
f 90/103/90 96/118/96 117/134/117
f 15/15/15 17/17/17 20/21/20
f 89/102/89 48/51/48 80/93/80
f 72/84/72 56/61/56 57/63/57
f 110/127/110 81/94/81 99/113/99
f 82/95/82 81/94/81 110/127/110
f 99/113/99 81/94/81 80/93/80
f 89/102/89 80/93/80 113/130/113
f 73/85/73 49/52/49 89/102/89
f 72/84/72 73/85/73 88/101/88
f 88/101/88 60/69/60 56/61/56
f 103/117/103 7/7/7 24/25/24
f 5/136/5 65/74/65 64/73/64
f 24/25/24 2/2/2 25/26/25
f 52/65/52 46/49/46 42/45/42
f 60/69/60 58/68/58 54/58/54
f 115/132/115 116/133/116 119/137/119
f 120/138/120 86/99/86 95/108/95
f 120/138/120 116/133/116 86/99/86
f 115/132/115 89/102/89 113/130/113
f 114/131/114 84/97/84 83/96/83
f 107/123/107 106/122/106 19/20/19
f 47/50/47 106/122/106 105/121/105
f 80/93/80 82/95/82 113/130/113
f 36/37/36 23/24/23 22/23/22
f 23/24/23 19/20/19 21/22/21
f 2/2/2 121/139/121 3/3/3
f 115/132/115 114/131/114 83/96/83
f 97/111/97 24/25/24 26/27/26
f 118/135/118 11/11/11 13/13/13
f 119/137/119 122/140/122 115/132/115
f 77/90/77 33/34/33 32/33/32
f 33/34/33 78/91/78 79/92/79
f 77/90/77 35/53/35 51/55/51
f 48/51/48 105/121/105 80/93/80
f 115/132/115 122/140/122 89/102/89
f 84/97/84 110/127/110 104/120/104
f 20/21/20 47/50/47 49/52/49
f 27/141/27 109/126/109 90/109/90
f 28/29/28 118/135/118 13/13/13
f 57/63/57 16/16/16 72/84/72
f 50/62/50 56/61/56 53/57/53
f 16/16/16 22/23/22 17/17/17
f 41/44/41 59/67/59 36/37/36
f 62/71/62 78/91/78 77/90/77
f 121/139/121 2/2/2 63/72/63
f 1/1/1 25/26/25 2/2/2
f 102/116/102 3/78/3 121/142/121
f 6/6/6 9/19/9 4/4/4
f 6/143/6 5/136/5 64/73/64
f 9/9/9 6/143/6 7/7/7
f 6/143/6 64/73/64 7/7/7
f 35/36/35 16/16/16 50/62/50
f 109/126/109 119/137/119 120/138/120
f 46/49/46 58/66/58 34/35/34
f 60/69/60 37/38/37 34/40/34
f 54/58/54 56/61/56 60/69/60
f 54/58/54 58/68/58 52/56/52
f 89/102/89 122/140/122 88/101/88
f 114/131/114 82/95/82 110/127/110
f 3/3/3 66/75/66 1/1/1
f 65/88/65 75/87/75 102/116/102
f 28/29/28 90/103/90 117/134/117
f 98/112/98 4/4/4 104/120/104
f 64/73/64 24/25/24 7/7/7
f 18/18/18 104/120/104 4/4/4
f 10/10/10 14/14/14 11/11/11
f 51/55/51 50/54/50 70/81/70
f 121/142/121 63/125/63 102/116/102
f 33/34/33 79/92/79 31/32/31
f 79/92/79 78/91/78 123/144/123
f 46/49/46 30/31/30 10/10/10
f 49/52/49 48/51/48 89/102/89
f 114/131/114 110/127/110 84/97/84
f 92/105/92 103/117/103 111/128/111
f 50/54/50 53/83/53 70/81/70
f 2/2/2 64/73/64 63/72/63
f 24/25/24 111/128/111 103/117/103
f 68/77/68 25/26/25 1/1/1
f 103/117/103 8/8/8 7/7/7
f 51/55/51 70/81/70 77/90/77
f 60/69/60 122/140/122 37/38/37
f 122/140/122 60/69/60 88/101/88
f 119/137/119 37/38/37 122/140/122
f 109/126/109 120/138/120 95/108/95
f 32/33/32 59/145/59 41/146/41
f 43/46/43 62/71/62 70/81/70
f 47/50/47 105/121/105 48/51/48
f 108/124/108 23/24/23 39/42/39
f 59/145/59 32/33/32 40/64/40
f 124/147/124 67/76/67 79/92/79
f 111/128/111 24/25/24 97/111/97
f 111/128/111 97/111/97 112/129/112
f 109/126/109 27/141/27 37/38/37
f 37/38/37 27/141/27 29/39/29
f 77/90/77 32/33/32 41/146/41
f 77/90/77 41/146/41 35/53/35
f 119/137/119 109/126/109 37/38/37
f 67/76/67 38/60/38 55/59/55
f 102/116/102 69/79/69 3/78/3
f 19/20/19 47/50/47 20/21/20
f 49/52/49 15/15/15 20/21/20
f 17/17/17 22/23/22 21/22/21
f 17/17/17 21/22/21 20/21/20
f 15/15/15 49/52/49 73/85/73
f 16/16/16 15/15/15 72/84/72
f 99/113/99 80/93/80 105/121/105
f 43/46/43 70/81/70 42/45/42
f 85/98/85 18/18/18 87/100/87
f 119/137/119 116/133/116 120/138/120
f 116/133/116 115/132/115 83/96/83
f 83/96/83 85/98/85 116/133/116
f 118/135/118 125/148/125 11/11/11
f 8/149/8 94/107/94 87/100/87
f 74/86/74 5/5/5 4/4/4
f 125/148/125 126/150/126 44/47/44
f 127/151/127 71/82/71 126/150/126
f 91/104/91 118/135/118 117/134/117
f 44/47/44 11/11/11 125/148/125
f 61/70/61 44/47/44 126/150/126
f 93/106/93 126/150/126 125/148/125
f 93/106/93 127/151/127 126/150/126
f 125/148/125 91/104/91 93/106/93
f 18/18/18 9/19/9 8/149/8
f 62/71/62 123/144/123 78/91/78
f 74/86/74 4/4/4 98/112/98
f 87/100/87 94/107/94 86/99/86
f 8/149/8 87/100/87 18/18/18
f 91/104/91 117/134/117 92/105/92
f 125/148/125 118/135/118 91/104/91
f 92/105/92 112/129/112 93/106/93
f 112/129/112 127/151/127 93/106/93
f 61/70/61 126/150/126 123/144/123
f 123/144/123 126/150/126 124/147/124
f 45/48/45 44/47/44 61/70/61
f 62/71/62 61/70/61 123/144/123
f 112/129/112 76/89/76 127/151/127
f 124/147/124 126/150/126 71/82/71
f 45/48/45 61/70/61 43/46/43
f 76/89/76 71/82/71 127/151/127
f 67/76/67 124/147/124 71/82/71
f 79/92/79 123/144/123 124/147/124
f 67/76/67 55/59/55 79/92/79
f 12/12/12 45/48/45 43/46/43
f 11/11/11 44/47/44 12/12/12
