# Blender v2.79 (sub 0) OBJ File: 'Rock01.blend'
# www.blender.org
mtllib Rock01_lowPoly.mtl
o Rock01_lowPoly
v -0.329787 0.331161 -0.664884
v -0.121677 0.474409 -0.697423
v -0.105077 0.179793 -0.797283
v -0.046018 -0.541017 -0.377369
v -0.188954 -0.497053 -0.677917
v 0.032830 -0.499829 -0.588643
v 0.124264 -0.567726 -0.290626
v 0.306633 -0.534028 -0.294604
v -0.551405 0.031311 -0.353639
v -0.669867 0.109887 -0.214607
v -0.459832 0.246769 -0.510019
v 0.357152 0.314651 0.157315
v 0.202865 0.448660 0.297939
v 0.453670 0.264167 0.408647
v 0.303331 -0.595582 -0.095944
v 0.020900 -0.567549 -0.170926
v -0.076021 -0.085132 -0.871471
v -0.357136 -0.156661 -0.682413
v -0.289233 -0.001183 -0.652007
v -0.270152 -0.183472 -0.808527
v -0.418133 0.113989 -0.596454
v -0.357448 -0.289312 -0.710499
v -0.415950 -0.205784 -0.565381
v 0.163663 0.082355 -0.777937
v 0.002697 0.366885 -0.769731
v 0.610783 0.213240 0.278210
v -0.221836 0.549360 -0.496986
v 0.120796 -0.616519 -0.009539
v 0.281860 0.413698 -0.001365
v 0.166022 0.593353 -0.142450
v 0.166810 0.539750 0.013983
v 0.003896 -0.087645 -0.848830
v -0.133271 -0.347799 -0.852817
v 0.202912 0.281405 0.606659
v -0.120051 0.484197 0.254422
v 0.147317 -0.644448 0.198870
v -0.069078 -0.634311 0.358849
v 0.001598 -0.621486 0.107938
v -0.412120 -0.039891 -0.521554
v -0.267188 -0.517971 -0.511235
v -0.339624 -0.570760 -0.339271
v -0.411922 -0.531626 -0.450929
v -0.320163 0.400267 -0.397374
v -0.310785 -0.065401 0.653185
v -0.300497 0.230669 0.590109
v -0.541959 -0.149883 0.654614
v -0.188035 -0.567437 -0.240575
v -0.399957 -0.380546 -0.560351
v -0.577540 -0.447692 -0.437339
v -0.570335 -0.514565 -0.252855
v -0.621291 -0.330526 -0.376157
v -0.138310 -0.507846 0.001542
v -0.458705 0.303234 -0.237762
v -0.577007 -0.444215 0.122010
v -0.721231 -0.206274 0.196479
v -0.793044 -0.268559 -0.028857
v 0.210105 -0.664869 0.386932
v -0.653758 0.261081 -0.016611
v -0.756833 0.112084 -0.068281
v -0.656582 0.202879 0.220876
v -0.581634 0.231841 0.502505
v -0.430587 -0.488541 -0.142587
v -0.831636 -0.131360 0.114856
v -0.766449 -0.064744 0.313078
v -0.571775 -0.147664 -0.402637
v -0.675668 -0.383692 -0.297937
v -0.705815 -0.472392 -0.144927
v -0.701738 -0.275045 -0.175469
v -0.796872 -0.121517 -0.035785
v -0.673360 -0.092346 0.552108
v 0.594488 0.020278 0.424168
v 0.366558 0.093769 0.748560
v 0.504662 -0.049488 0.667409
v -0.528028 -0.292013 0.531479
v -0.632012 -0.243827 0.320067
v -0.313165 -0.528981 0.290075
v -0.407252 -0.507724 0.060907
v -0.381405 -0.525255 0.486282
v -0.529238 -0.453519 0.258128
v 0.257111 -0.648065 0.065356
v 0.389964 -0.630540 0.091623
v -0.118576 -0.637813 0.503284
v 0.280451 -0.614494 0.520246
v 0.102457 -0.529307 0.589984
v -0.088964 -0.433485 -0.760893
v 0.123839 -0.262051 -0.652525
v 0.512331 -0.546753 0.005521
v 0.334647 -0.078185 -0.601588
v 0.461814 0.061616 -0.537176
v 0.445041 -0.163171 -0.382732
v 0.201314 -0.258755 0.695464
v 0.345299 0.028462 0.807192
v -0.033680 -0.140082 0.748361
v 0.303858 -0.416318 0.607566
v 0.519225 -0.220562 0.672459
v 0.423847 -0.372738 0.631617
v -0.183358 -0.413946 0.618451
v -0.333050 -0.353632 0.665032
v 0.167461 0.119275 0.826995
v 0.642623 -0.298807 0.414286
v 0.719178 -0.328350 0.195397
v 0.758834 -0.200488 0.193549
v 0.853100 -0.070218 0.092373
v -0.637325 -0.101393 -0.196344
v -0.546714 0.417726 0.066001
v -0.288303 0.583661 -0.264530
v -0.184679 0.556823 0.094242
v -0.109883 0.619187 -0.203784
v -0.066932 0.604350 -0.425400
v 0.371313 0.395604 -0.232816
v 0.524576 0.410333 -0.142129
v 0.275857 0.339751 -0.451319
v 0.647106 0.068592 -0.252226
v 0.618186 0.329375 -0.260720
v 0.611033 0.181151 -0.380802
v 0.325070 0.194277 -0.742804
v 0.591862 -0.124755 -0.231446
v 0.455896 -0.458299 0.528601
v 0.515933 -0.391440 0.419918
v 0.515272 -0.468344 0.298138
v 0.693314 -0.283677 0.006348
v 0.036672 0.164811 0.720159
v -0.076811 0.327253 0.369080
v 0.480560 -0.375723 -0.192881
v 0.411263 -0.499630 0.363513
v 0.515018 -0.458140 0.187005
v -0.447933 0.344539 0.285834
vt 0.901349 0.444488
vt 0.884520 0.525762
vt 0.808983 0.481687
vt 0.526066 0.512510
vt 0.601428 0.423896
vt 0.597602 0.502268
vt 0.534514 0.574236
vt 0.570252 0.612272
vt 0.155518 0.259233
vt 0.191766 0.293404
vt 0.086853 0.304504
vt 0.313031 0.646069
vt 0.315907 0.563266
vt 0.410019 0.623821
vt 0.530985 0.650952
vt 0.483447 0.574087
vt 0.734122 0.465239
vt 0.735210 0.358819
vt 0.790837 0.384822
vt 0.712164 0.407055
vt 0.009296 0.321984
vt 0.037417 0.196339
vt 0.068668 0.255675
vt 0.075946 0.140730
vt 0.102487 0.093784
vt 0.125819 0.156217
vt 0.757541 0.539629
vt 0.836963 0.533667
vt 0.717172 0.829603
vt 0.805175 0.834702
vt 0.731791 0.891168
vt 0.960514 0.535783
vt 0.470922 0.638676
vt 0.241461 0.636516
vt 0.164905 0.587862
vt 0.221521 0.580911
vt 0.728639 0.486907
vt 0.669741 0.442346
vt 0.409585 0.518084
vt 0.275550 0.481509
vt 0.507143 0.123690
vt 0.462148 0.197550
vt 0.445506 0.121223
vt 0.104041 0.212450
vt 0.221282 0.060105
vt 0.267169 0.103260
vt 0.230430 0.111198
vt 0.091540 0.379549
vt 0.389930 0.356916
vt 0.350993 0.403478
vt 0.361943 0.321624
vt 0.302923 0.008394
vt 0.315802 0.077360
vt 0.678954 0.359559
vt 0.168536 0.112455
vt 0.219417 0.154767
vt 0.261566 0.164217
vt 0.209577 0.185061
vt 0.455212 0.061498
vt 0.380968 0.119516
vt 0.383393 0.037944
vt 0.151922 0.350545
vt 0.321165 0.217970
vt 0.297987 0.268278
vt 0.263335 0.243403
vt 0.550610 0.184346
vt 0.222162 0.338989
vt 0.226114 0.302381
vt 0.268788 0.342678
vt 0.314460 0.363612
vt 0.299963 0.153422
vt 0.272790 0.275645
vt 0.298353 0.301107
vt 0.171855 0.212307
vt 0.233152 0.191066
vt 0.266195 0.200047
vt 0.237539 0.223611
vt 0.248971 0.265313
vt 0.334736 0.316664
vt 0.043301 0.435248
vt 0.656751 0.851611
vt 0.625129 0.965013
vt 0.607129 0.901845
vt 0.363589 0.289721
vt 0.325109 0.273515
vt 0.172161 0.008394
vt 0.391512 0.208739
vt 0.339930 0.181136
vt 0.398496 0.253549
vt 0.346627 0.232113
vt 0.493097 0.681667
vt 0.442268 0.763354
vt 0.447180 0.702480
vt 0.508650 0.518063
vt 0.520453 0.705048
vt 0.461537 0.236888
vt 0.580675 0.231738
vt 0.522548 0.271057
vt 0.637982 0.455084
vt 0.664839 0.527072
vt 0.561311 0.701399
vt 0.705724 0.584818
vt 0.730090 0.622532
vt 0.669508 0.633568
vt 0.537560 0.368132
vt 0.524439 0.485522
vt 0.458305 0.377757
vt 0.585047 0.312123
vt 0.571520 0.879079
vt 0.594615 0.969944
vt 0.526989 0.862929
vt 0.498821 0.930596
vt 0.490602 0.868455
vt 0.440794 0.293401
vt 0.405632 0.301867
vt 0.463284 0.464424
vt 0.587772 0.810952
vt 0.605803 0.763400
vt 0.631952 0.772356
vt 0.664783 0.760922
vt 0.208392 0.249578
vt 0.227134 0.383521
vt 0.127208 0.438810
vt 0.226575 0.475809
vt 0.139161 0.496017
vt 0.950764 0.602694
vt 0.907926 0.724171
vt 0.824048 0.699332
vt 0.059299 0.503864
vt 0.849341 0.786247
vt 0.790434 0.733389
vt 0.822843 0.636229
vt 0.712016 0.697381
vt 0.767682 0.701951
vt 0.744525 0.672993
vt 0.770879 0.582332
vt 0.669229 0.682344
vt 0.521501 0.826101
vt 0.549736 0.803989
vt 0.546784 0.769781
vt 0.625164 0.728484
vt 0.421491 0.451977
vt 0.323440 0.467316
vt 0.608506 0.663247
vt 0.452288 0.810631
vt 0.517169 0.780606
vt 0.557528 0.745733
vt 0.277121 0.397285
vn -0.6824 0.3442 -0.6448
vn -0.0539 0.7192 -0.6927
vn -0.2044 0.1896 -0.9604
vn -0.0111 -0.9878 -0.1553
vn -0.2544 -0.8491 -0.4630
vn 0.3027 -0.8475 -0.4360
vn 0.0205 -0.9821 -0.1873
vn 0.4947 -0.7290 -0.4732
vn -0.8342 -0.0137 -0.5513
vn -0.8194 0.1853 -0.5424
vn -0.8236 0.4101 -0.3919
vn 0.4393 0.8788 0.1863
vn 0.4062 0.8738 0.2673
vn 0.5731 0.7414 0.3490
vn 0.1318 -0.9553 -0.2645
vn -0.1086 -0.9921 -0.0623
vn -0.2994 0.2645 -0.9167
vn -0.7726 0.3644 -0.5199
vn -0.6876 0.0886 -0.7207
vn -0.6065 0.1548 -0.7798
vn -0.7400 -0.1201 -0.6618
vn -0.7803 -0.2256 -0.5832
vn -0.8142 0.1222 -0.5675
vn 0.3556 -0.1117 -0.9279
vn 0.2165 0.4964 -0.8406
vn 0.6065 0.7006 0.3760
vn -0.5796 0.7424 -0.3361
vn -0.1815 -0.9590 -0.2177
vn 0.5853 0.7505 0.3069
vn 0.4061 0.9138 0.0031
vn 0.3657 0.8957 0.2528
vn 0.4276 -0.0527 -0.9025
vn 0.0109 -0.4078 -0.9130
vn 0.0300 0.8093 0.5866
vn -0.2004 0.7569 0.6221
vn -0.1139 -0.9893 -0.0912
vn -0.2569 -0.9566 -0.1374
vn -0.2782 -0.9381 -0.2066
vn -0.7323 0.0004 -0.6809
vn -0.1365 -0.9229 -0.3601
vn -0.0917 -0.9958 -0.0057
vn -0.2966 -0.8178 -0.4932
vn -0.7947 0.5485 -0.2599
vn -0.1297 0.0701 0.9891
vn -0.1508 0.6522 0.7429
vn -0.4491 -0.1192 0.8855
vn -0.0415 -0.9979 0.0494
vn -0.6321 -0.3734 -0.6790
vn -0.6741 -0.4276 -0.6023
vn -0.3546 -0.9327 -0.0663
vn -0.7753 0.1076 -0.6223
vn -0.2513 -0.9653 -0.0716
vn -0.6863 0.6463 -0.3336
vn -0.4767 -0.8514 0.2186
vn -0.7490 -0.5646 0.3468
vn -0.9590 -0.2763 -0.0637
vn 0.0434 -0.9982 0.0404
vn -0.7762 0.6072 -0.1695
vn -0.8833 0.4362 -0.1716
vn -0.8629 0.4661 0.1952
vn -0.5462 0.6287 0.5536
vn -0.1404 -0.9761 0.1659
vn -0.9800 -0.1564 0.1232
vn -0.9462 0.0512 0.3196
vn -0.8124 0.2089 -0.5444
vn -0.8709 -0.1628 -0.4636
vn -0.7095 -0.7020 -0.0617
vn -0.8457 0.2121 -0.4896
vn -0.8692 0.0246 -0.4938
vn -0.8652 -0.2048 0.4577
vn 0.8113 0.2759 0.5154
vn 0.5826 0.5768 0.5726
vn 0.8182 0.2303 0.5268
vn -0.7448 -0.5411 0.3905
vn -0.7678 -0.5591 0.3128
vn -0.2924 -0.9500 -0.1093
vn -0.2180 -0.9756 -0.0241
vn -0.5504 -0.7503 0.3662
vn -0.6319 -0.7502 0.1947
vn -0.0025 -0.9870 -0.1604
vn 0.5147 -0.8560 0.0472
vn -0.1629 -0.8654 0.4739
vn 0.3566 -0.7460 0.5624
vn 0.0258 -0.4535 0.8909
vn 0.3797 -0.6552 -0.6531
vn 0.6376 -0.4011 -0.6577
vn 0.6438 -0.7419 -0.1874
vn 0.6074 -0.4174 -0.6759
vn 0.7532 -0.3273 -0.5706
vn 0.6849 -0.4560 -0.5683
vn 0.0517 -0.4058 0.9125
vn 0.3234 -0.0698 0.9437
vn -0.1939 -0.1922 0.9620
vn 0.0667 -0.4282 0.9012
vn 0.6721 -0.2652 0.6913
vn 0.2237 -0.4789 0.8489
vn -0.0287 -0.3167 0.9481
vn -0.1034 -0.3420 0.9340
vn -0.0218 0.4851 0.8742
vn 0.8751 -0.3203 0.3626
vn 0.7534 -0.6420 0.1423
vn 0.9298 -0.2445 0.2752
vn 0.9992 0.0080 -0.0390
vn -0.8319 0.0679 -0.5508
vn -0.6711 0.7413 0.0036
vn -0.4986 0.8569 -0.1310
vn -0.1472 0.9367 0.3176
vn -0.0374 0.9930 0.1124
vn 0.1791 0.9319 -0.3154
vn 0.3678 0.8037 -0.4677
vn 0.5885 0.8023 0.0996
vn 0.4513 0.7838 -0.4267
vn 0.9538 -0.0516 -0.2961
vn 0.6812 0.6719 -0.2908
vn 0.8003 0.2341 -0.5520
vn 0.6136 0.1811 -0.7686
vn 0.7438 -0.3608 -0.5627
vn 0.6714 -0.6864 0.2796
vn 0.6278 -0.7520 0.2009
vn 0.6219 -0.7497 0.2262
vn 0.8109 -0.4590 -0.3629
vn -0.2963 0.5771 0.7610
vn -0.2145 0.7713 0.5992
vn 0.6991 -0.4257 -0.5744
vn 0.6469 -0.7333 0.2093
vn 0.6544 -0.7421 0.1454
vn -0.1935 0.8477 0.4939
usemtl Material.001
s 1
f 1/1/1 2/2/2 3/3/3
f 4/4/4 5/5/5 6/6/6
f 7/7/7 6/6/6 8/8/8
f 9/9/9 10/10/10 11/11/11
f 12/12/12 13/13/13 14/14/14
f 7/7/7 15/15/15 16/16/16
f 17/17/17 18/18/18 19/19/19
f 6/6/6 7/7/7 4/4/4
f 20/20/20 18/18/18 17/17/17
f 1/21/1 19/22/19 21/23/21
f 18/24/18 22/25/22 23/26/23
f 24/27/24 3/3/3 25/28/25
f 26/29/26 12/30/12 14/31/14
f 2/2/2 1/1/1 27/32/27
f 7/7/7 16/16/16 4/4/4
f 28/33/28 16/16/16 15/15/15
f 15/15/15 7/7/7 8/8/8
f 29/34/29 30/35/30 31/36/31
f 17/17/17 32/37/32 33/38/33
f 34/39/34 13/13/13 35/40/35
f 11/11/11 1/21/1 21/23/21
f 25/28/25 3/3/3 2/2/2
f 12/12/12 29/34/29 13/13/13
f 36/41/36 37/42/37 38/43/38
f 19/22/19 23/26/23 39/44/39
f 19/22/19 39/44/39 21/23/21
f 40/45/40 41/46/41 42/47/42
f 17/17/17 19/19/19 3/3/3
f 1/1/1 3/3/3 19/19/19
f 11/11/11 43/48/43 1/21/1
f 44/49/44 45/50/45 46/51/46
f 40/45/40 4/52/4 47/53/47
f 3/3/3 32/37/32 17/17/17
f 20/20/20 22/54/22 18/18/18
f 48/55/48 40/45/40 42/47/42
f 49/56/49 42/47/42 50/57/50
f 48/55/48 51/58/51 23/26/23
f 28/59/28 38/43/38 52/60/52
f 48/55/48 42/47/42 49/56/49
f 39/44/39 9/9/9 21/23/21
f 16/61/16 47/53/47 4/52/4
f 53/62/53 43/48/43 11/11/11
f 54/63/54 55/64/55 56/65/56
f 37/42/37 36/41/36 57/66/57
f 58/67/58 59/68/59 60/69/60
f 45/50/45 61/70/61 46/51/46
f 52/60/52 38/43/38 37/42/37
f 48/55/48 23/26/23 22/25/22
f 50/57/50 41/46/41 62/71/62
f 63/72/63 55/64/55 64/73/64
f 40/45/40 47/53/47 41/46/41
f 23/26/23 51/58/51 65/74/65
f 14/14/14 13/13/13 34/39/34
f 66/75/66 67/76/67 56/65/56
f 68/77/68 56/65/56 69/78/69
f 48/55/48 49/56/49 51/58/51
f 41/46/41 47/53/47 62/71/62
f 10/10/10 59/68/59 53/62/53
f 39/44/39 23/26/23 65/74/65
f 65/74/65 9/9/9 39/44/39
f 17/17/17 33/38/33 20/20/20
f 23/26/23 19/22/19 18/24/18
f 54/63/54 56/65/56 67/76/67
f 70/79/70 64/73/64 55/64/55
f 38/43/38 28/59/28 36/41/36
f 56/65/56 68/77/68 66/75/66
f 1/21/1 43/48/43 27/80/27
f 69/78/69 63/72/63 59/68/59
f 71/81/71 72/82/72 73/83/73
f 74/84/74 70/79/70 75/85/75
f 63/72/63 64/73/64 59/68/59
f 72/82/72 71/81/71 14/31/14
f 71/81/71 26/29/26 14/31/14
f 52/60/52 16/61/16 28/59/28
f 5/86/5 4/52/4 40/45/40
f 52/60/52 76/87/76 77/88/77
f 78/89/78 74/84/74 79/90/79
f 52/60/52 77/88/77 62/71/62
f 22/54/22 20/20/20 33/38/33
f 62/71/62 54/63/54 50/57/50
f 79/90/79 75/85/75 55/64/55
f 55/64/55 63/72/63 56/65/56
f 80/91/80 57/92/57 36/93/36
f 75/85/75 70/79/70 55/64/55
f 79/90/79 55/64/55 54/63/54
f 14/14/14 34/39/34 72/94/72
f 52/60/52 47/53/47 16/61/16
f 57/92/57 80/91/80 81/95/81
f 75/85/75 79/90/79 74/84/74
f 82/96/82 37/42/37 57/66/57
f 64/73/64 60/69/60 59/68/59
f 83/97/83 84/98/84 82/96/82
f 85/99/85 5/5/5 33/38/33
f 6/6/6 86/100/86 8/8/8
f 86/100/86 6/6/6 85/99/85
f 57/66/57 83/97/83 82/96/82
f 5/5/5 85/99/85 6/6/6
f 59/68/59 10/10/10 69/78/69
f 15/15/15 8/8/8 87/101/87
f 88/102/88 89/103/89 90/104/90
f 49/56/49 66/75/66 51/58/51
f 80/91/80 36/93/36 28/33/28
f 81/95/81 80/91/80 15/15/15
f 5/86/5 48/55/48 22/25/22
f 80/91/80 28/33/28 15/15/15
f 33/38/33 32/37/32 86/100/86
f 15/15/15 87/101/87 81/95/81
f 24/27/24 32/37/32 3/3/3
f 91/105/91 92/106/92 93/107/93
f 94/108/94 91/105/91 84/98/84
f 95/109/95 92/110/92 96/111/96
f 67/76/67 66/75/66 50/57/50
f 96/111/96 91/112/91 94/113/94
f 76/87/76 79/90/79 77/88/77
f 11/11/11 21/23/21 9/9/9
f 66/75/66 68/77/68 51/58/51
f 52/60/52 62/71/62 47/53/47
f 69/78/69 56/65/56 63/72/63
f 37/42/37 82/96/82 76/87/76
f 76/87/76 82/96/82 78/89/78
f 97/114/97 98/115/98 82/96/82
f 94/108/94 84/98/84 83/97/83
f 54/63/54 77/88/77 79/90/79
f 54/63/54 62/71/62 77/88/77
f 92/106/92 99/116/99 93/107/93
f 100/117/100 101/118/101 102/119/102
f 92/106/92 72/94/72 99/116/99
f 71/81/71 73/83/73 100/117/100
f 73/83/73 95/109/95 100/117/100
f 92/110/92 95/109/95 73/83/73
f 34/39/34 99/116/99 72/94/72
f 71/81/71 100/117/100 102/119/102
f 76/87/76 52/60/52 37/42/37
f 102/119/102 103/120/103 71/81/71
f 26/29/26 71/81/71 103/120/103
f 85/99/85 33/38/33 86/100/86
f 5/5/5 22/54/22 33/38/33
f 40/45/40 48/55/48 5/86/5
f 42/47/42 41/46/41 50/57/50
f 104/121/104 10/10/10 9/9/9
f 105/122/105 60/69/60 61/70/61
f 58/67/58 60/69/60 105/122/105
f 43/48/43 106/123/106 27/80/27
f 105/122/105 53/62/53 58/67/58
f 59/68/59 58/67/58 53/62/53
f 106/123/106 43/48/43 105/122/105
f 105/122/105 43/48/43 53/62/53
f 107/124/107 108/125/108 106/123/106
f 109/126/109 30/127/30 110/128/110
f 13/13/13 31/36/31 107/124/107
f 96/111/96 92/110/92 91/112/91
f 10/10/10 104/121/104 69/78/69
f 66/75/66 49/56/49 50/57/50
f 67/76/67 50/57/50 54/63/54
f 104/121/104 65/74/65 68/77/68
f 65/74/65 51/58/51 68/77/68
f 104/121/104 68/77/68 69/78/69
f 65/74/65 104/121/104 9/9/9
f 78/89/78 79/90/79 76/87/76
f 73/83/73 72/82/72 92/110/92
f 13/13/13 29/34/29 31/36/31
f 31/36/31 30/35/30 108/125/108
f 30/35/30 109/129/109 108/125/108
f 27/32/27 109/126/109 2/2/2
f 29/130/29 111/131/111 30/127/30
f 108/125/108 109/129/109 106/123/106
f 27/80/27 106/123/106 109/129/109
f 53/62/53 11/11/11 10/10/10
f 108/125/108 107/124/107 31/36/31
f 25/28/25 2/2/2 112/132/112
f 29/130/29 12/30/12 111/131/111
f 112/132/112 2/2/2 109/126/109
f 111/131/111 26/29/26 103/120/103
f 113/133/113 114/134/114 111/131/111
f 114/134/114 113/133/113 115/135/115
f 12/30/12 26/29/26 111/131/111
f 112/132/112 115/135/115 116/136/116
f 113/133/113 103/120/103 117/137/117
f 112/132/112 109/126/109 110/128/110
f 110/128/110 111/131/111 114/134/114
f 114/134/114 112/132/112 110/128/110
f 112/132/112 114/134/114 115/135/115
f 24/27/24 25/28/25 116/136/116
f 95/109/95 96/111/96 118/138/118
f 118/138/118 100/117/100 95/109/95
f 101/118/101 119/139/119 120/140/120
f 121/141/121 102/119/102 101/118/101
f 122/142/122 34/39/34 123/143/123
f 117/137/117 90/104/90 89/103/89
f 115/135/115 89/103/89 116/136/116
f 8/8/8 124/144/124 87/101/87
f 34/39/34 35/40/35 123/143/123
f 124/144/124 117/137/117 121/141/121
f 124/144/124 121/141/121 87/101/87
f 121/141/121 117/137/117 103/120/103
f 124/144/124 8/8/8 86/100/86
f 118/138/118 83/145/83 125/146/125
f 103/120/103 102/119/102 121/141/121
f 90/104/90 117/137/117 124/144/124
f 25/28/25 112/132/112 116/136/116
f 30/127/30 111/131/111 110/128/110
f 96/111/96 83/145/83 118/138/118
f 117/137/117 89/103/89 113/133/113
f 119/139/119 118/138/118 125/146/125
f 84/98/84 93/107/93 97/114/97
f 84/98/84 91/105/91 93/107/93
f 24/27/24 86/100/86 32/37/32
f 88/102/88 86/100/86 24/27/24
f 83/145/83 57/92/57 81/95/81
f 126/147/126 81/95/81 87/101/87
f 122/142/122 123/143/123 45/50/45
f 127/148/127 107/124/107 105/122/105
f 121/141/121 101/118/101 87/101/87
f 116/136/116 89/103/89 88/102/88
f 24/27/24 116/136/116 88/102/88
f 115/135/115 113/133/113 89/103/89
f 86/100/86 88/102/88 90/104/90
f 61/70/61 127/148/127 105/122/105
f 96/111/96 94/113/94 83/145/83
f 100/117/100 118/138/118 119/139/119
f 90/104/90 124/144/124 86/100/86
f 81/95/81 126/147/126 120/140/120
f 34/39/34 122/142/122 99/116/99
f 44/49/44 122/142/122 45/50/45
f 82/96/82 98/115/98 78/89/78
f 120/140/120 119/139/119 125/146/125
f 81/95/81 120/140/120 125/146/125
f 123/143/123 35/40/35 127/148/127
f 127/148/127 45/50/45 123/143/123
f 101/118/101 120/140/120 126/147/126
f 81/95/81 125/146/125 83/145/83
f 101/118/101 126/147/126 87/101/87
f 107/124/107 127/148/127 35/40/35
f 46/51/46 98/115/98 44/49/44
f 61/70/61 45/50/45 127/148/127
f 101/118/101 100/117/100 119/139/119
f 70/79/70 60/69/60 64/73/64
f 122/142/122 93/107/93 99/116/99
f 78/89/78 46/51/46 74/84/74
f 61/70/61 60/69/60 70/79/70
f 113/133/113 111/131/111 103/120/103
f 46/51/46 61/70/61 70/79/70
f 70/79/70 74/84/74 46/51/46
f 93/107/93 122/142/122 44/49/44
f 97/114/97 93/107/93 44/49/44
f 107/124/107 35/40/35 13/13/13
f 98/115/98 97/114/97 44/49/44
f 107/124/107 106/123/106 105/122/105
f 82/96/82 84/98/84 97/114/97
f 98/115/98 46/51/46 78/89/78
